<svg width="908" height="242" viewBox="0 0 908 242" fill="none" xmlns="http://www.w3.org/2000/svg">
<rect x="0.690186" y="0.385498" width="240.785" height="240.785" rx="120.393" fill="#183EF6"/>
<path d="M183.196 153.34C183.256 153.265 183.302 153.189 183.362 153.099C183.574 152.781 183.77 152.464 183.967 152.162C184.103 151.95 184.239 151.738 184.36 151.527C184.481 151.33 184.586 151.134 184.692 150.937C184.889 150.59 185.085 150.257 185.266 149.91C185.312 149.834 185.342 149.743 185.387 149.668C186.974 146.645 188.153 143.38 188.848 139.934C190.042 134.131 189.831 127.949 187.972 121.888C183.181 106.276 168.868 96.1496 153.361 95.938C147.542 95.8624 143.325 101.439 145.018 107.001C146.137 110.644 149.522 112.956 153.316 113.047C161.523 113.243 169.08 118.624 171.619 126.906C172.208 128.811 172.48 130.745 172.48 132.65C172.48 134.327 172.269 135.959 171.86 137.516C171.845 137.592 171.815 137.682 171.8 137.758C171.74 137.985 171.679 138.196 171.619 138.408C171.573 138.559 171.513 138.71 171.467 138.861C171.422 138.997 171.377 139.148 171.316 139.285C171.256 139.451 171.195 139.617 171.12 139.783C171.075 139.919 171.014 140.04 170.969 140.176C170.908 140.327 170.848 140.463 170.772 140.615C170.712 140.766 170.636 140.917 170.576 141.068C170.53 141.174 170.47 141.28 170.425 141.385C170.334 141.567 170.243 141.763 170.137 141.945C170.107 141.99 170.077 142.05 170.047 142.096C166.707 148.141 160.268 152.237 152.877 152.237C142.071 152.237 133.275 143.441 133.275 132.634V60.2542C133.275 55.5386 129.451 51.6997 124.72 51.6997C119.99 51.6997 116.166 55.5235 116.166 60.2542V132.695C116.166 152.917 132.64 169.376 152.877 169.376C156.626 169.376 160.238 168.817 163.639 167.759C163.639 167.759 163.699 167.744 163.729 167.729C163.911 167.668 164.077 167.608 164.243 167.547C172.238 164.948 178.752 159.824 183.166 153.34H183.196Z" fill="#F2F2F2"/>
<path d="M97.179 169.313C95.7113 169.313 94.2277 168.934 92.8705 168.129L45.7919 140.446C43.172 138.915 41.5938 136.106 41.5938 133.06C41.6096 130.029 43.2352 127.22 45.8708 125.721L92.1445 99.1423C96.2321 96.8064 101.424 98.2111 103.776 102.283C106.112 106.371 104.707 111.563 100.635 113.915L67.0664 133.186L101.503 153.436C105.559 155.819 106.917 161.043 104.534 165.099C102.94 167.798 100.099 169.297 97.179 169.297V169.313Z" fill="#F2F2F2"/>
<path d="M304.52 102.217C308.657 100.094 313.325 99.0858 318.417 99.0858C324.411 99.0858 329.875 100.519 334.702 103.384C339.529 106.25 343.348 110.337 346.159 115.644C348.971 120.951 350.35 127.001 350.35 133.847C350.35 140.693 348.971 146.796 346.159 152.156C343.348 157.569 339.529 161.762 334.649 164.734C329.769 167.759 324.358 169.245 318.417 169.245C313.166 169.245 308.498 168.236 304.414 166.166C300.329 164.097 297.094 161.496 294.707 158.259V168.13H280.65V76.8494H294.707V110.284C297.094 106.993 300.382 104.287 304.52 102.217ZM333.163 121.694C331.254 118.297 328.655 115.697 325.525 113.892C322.343 112.141 318.948 111.239 315.341 111.239C311.734 111.239 308.445 112.141 305.262 113.945C302.08 115.75 299.534 118.403 297.624 121.853C295.715 125.302 294.707 129.389 294.707 134.059C294.707 138.729 295.661 142.816 297.624 146.318C299.587 149.821 302.133 152.474 305.262 154.279C308.392 156.083 311.787 156.985 315.341 156.985C318.895 156.985 322.343 156.083 325.525 154.226C328.708 152.368 331.254 149.662 333.163 146.159C335.073 142.603 336.081 138.517 336.081 133.794C336.081 129.07 335.126 125.037 333.163 121.641V121.694Z" fill="white"/>
<path d="M382.229 101.952C385.624 100.041 389.708 99.033 394.376 99.033V113.574H390.822C385.306 113.574 381.115 114.954 378.304 117.767C375.492 120.579 374.06 125.409 374.06 132.308V168.077H360.004V100.147H374.06V110.018C376.129 106.569 378.834 103.862 382.282 101.952H382.229Z" fill="white"/>
<path d="M405.462 88.5779C403.712 86.8266 402.863 84.7038 402.863 82.1565C402.863 79.6091 403.712 77.4863 405.462 75.735C407.213 73.9836 409.334 73.1345 411.88 73.1345C414.427 73.1345 416.442 73.9836 418.193 75.735C419.943 77.4863 420.792 79.6091 420.792 82.1565C420.792 84.7038 419.943 86.8266 418.193 88.5779C416.442 90.3293 414.374 91.1784 411.88 91.1784C409.387 91.1784 407.213 90.3293 405.462 88.5779ZM418.829 100.147V168.13H404.773V100.147H418.829Z" fill="white"/>
<path d="M475.48 102.217C479.564 104.34 482.747 106.94 485.028 110.071V100.2H499.191V169.298C499.191 175.56 497.865 181.132 495.265 186.015C492.666 190.897 488.847 194.771 483.861 197.531C478.875 200.344 472.934 201.723 466.038 201.723C456.809 201.723 449.17 199.548 443.07 195.249C436.97 190.95 433.522 185.059 432.727 177.683H446.677C447.738 181.238 450.019 184.104 453.52 186.28C457.021 188.456 461.211 189.57 466.038 189.57C471.714 189.57 476.276 187.819 479.777 184.369C483.277 180.92 485.028 175.878 485.028 169.298V157.941C482.641 161.125 479.405 163.831 475.321 166.007C471.237 168.183 466.622 169.298 461.423 169.298C455.483 169.298 450.072 167.812 445.192 164.787C440.312 161.762 436.44 157.569 433.575 152.209C430.711 146.796 429.332 140.693 429.332 133.9C429.332 127.107 430.764 121.004 433.575 115.75C436.387 110.496 440.259 106.409 445.192 103.491C450.125 100.572 455.483 99.0857 461.423 99.0857C466.675 99.0857 471.343 100.147 475.427 102.217H475.48ZM482.164 121.906C480.201 118.456 477.708 115.803 474.578 113.998C471.449 112.194 468.107 111.292 464.447 111.292C460.787 111.292 457.445 112.194 454.316 113.945C451.186 115.697 448.64 118.297 446.73 121.747C444.821 125.143 443.813 129.23 443.813 133.9C443.813 138.57 444.768 142.709 446.73 146.265C448.64 149.821 451.186 152.474 454.369 154.332C457.551 156.189 460.893 157.091 464.447 157.091C468.001 157.091 471.449 156.189 474.578 154.385C477.708 152.58 480.254 149.927 482.164 146.424C484.073 142.922 485.081 138.835 485.081 134.165C485.081 129.495 484.126 125.409 482.164 121.959V121.906Z" fill="white"/>
<path d="M560.721 102.376C564.806 104.605 567.988 107.895 570.322 112.247C572.656 116.599 573.823 121.853 573.823 128.062V168.183H559.873V130.185C559.873 124.082 558.334 119.412 555.311 116.174C552.287 112.937 548.097 111.292 542.846 111.292C537.594 111.292 533.404 112.937 530.327 116.174C527.251 119.412 525.712 124.082 525.712 130.185V168.183H511.656V76.8494H525.712V108.055C528.099 105.189 531.123 102.96 534.783 101.368C538.443 99.8288 542.474 99.0327 546.824 99.0327C552.022 99.0327 556.637 100.147 560.721 102.376Z" fill="white"/>
<path d="M601.512 111.664V149.29C601.512 151.838 602.096 153.695 603.316 154.757C604.483 155.871 606.551 156.402 609.416 156.402H618.062V168.13H606.976C600.663 168.13 595.783 166.644 592.442 163.672C589.1 160.7 587.402 155.924 587.402 149.237V111.61H579.393V100.147H587.402V83.271H601.565V100.2H618.115V111.664H601.565H601.512Z" fill="white"/>
<path d="M633.922 166.432C632.171 164.68 631.323 162.558 631.323 160.01C631.323 157.463 632.171 155.34 633.922 153.589C635.672 151.837 637.794 150.988 640.34 150.988C642.886 150.988 644.902 151.837 646.652 153.589C648.403 155.34 649.252 157.463 649.252 160.01C649.252 162.558 648.403 164.68 646.652 166.432C644.902 168.183 642.833 169.032 640.34 169.032C637.847 169.032 635.672 168.183 633.922 166.432Z" fill="white"/>
<path d="M687.072 102.217C691.209 100.094 695.877 99.0858 700.969 99.0858C706.963 99.0858 712.427 100.519 717.254 103.384C722.081 106.25 725.9 110.337 728.711 115.644C731.523 120.951 732.902 127.001 732.902 133.847C732.902 140.693 731.523 146.796 728.711 152.156C725.9 157.569 722.081 161.762 717.201 164.734C712.321 167.759 706.91 169.245 700.969 169.245C695.718 169.245 691.05 168.236 686.966 166.166C682.881 164.097 679.646 161.496 677.259 158.259V168.13H663.202V76.8494H677.259V110.284C679.646 106.993 682.934 104.287 687.072 102.217ZM715.662 121.694C713.753 118.297 711.154 115.697 708.024 113.892C704.842 112.141 701.447 111.239 697.84 111.239C694.233 111.239 690.944 112.141 687.761 113.945C684.579 115.75 682.033 118.403 680.123 121.853C678.214 125.302 677.206 129.389 677.206 134.059C677.206 138.729 678.16 142.816 680.123 146.318C682.086 149.821 684.632 152.474 687.761 154.279C690.891 156.083 694.286 156.985 697.84 156.985C701.394 156.985 704.842 156.083 708.024 154.226C711.207 152.368 713.753 149.662 715.662 146.159C717.572 142.603 718.58 138.517 718.58 133.794C718.58 129.07 717.625 125.037 715.662 121.641V121.694Z" fill="white"/>
<path d="M756.559 76.8494V168.183H742.502V76.8494H756.559Z" fill="white"/>
<path d="M831.669 100.147V168.13H817.612V160.117C815.385 162.929 812.52 165.105 808.913 166.697C805.359 168.289 801.54 169.085 797.509 169.085C792.151 169.085 787.377 167.971 783.134 165.742C778.89 163.513 775.549 160.223 773.162 155.871C770.722 151.519 769.502 146.265 769.502 140.056V100.094H783.452V137.986C783.452 144.089 784.99 148.76 788.014 151.997C791.037 155.234 795.228 156.879 800.479 156.879C805.731 156.879 809.921 155.234 812.998 151.997C816.074 148.76 817.612 144.089 817.612 137.986V100.094H831.669V100.147Z" fill="white"/>
<path d="M907.044 139.419H855.115C855.539 144.833 857.555 149.237 861.162 152.475C864.768 155.765 869.224 157.41 874.475 157.41C882.061 157.41 887.365 154.226 890.495 147.911H905.665C903.597 154.173 899.883 159.268 894.526 163.301C889.116 167.281 882.432 169.298 874.475 169.298C868.004 169.298 862.169 167.812 857.024 164.893C851.879 161.974 847.847 157.835 844.93 152.528C842.013 147.221 840.527 141.065 840.527 134.059C840.527 127.054 841.96 120.898 844.771 115.591C847.582 110.284 851.614 106.197 856.759 103.332C861.904 100.466 867.792 99.033 874.475 99.033C881.159 99.033 886.623 100.413 891.609 103.226C896.595 106.038 900.52 109.965 903.331 115.007C906.143 120.049 907.522 125.886 907.522 132.467C907.522 135.015 907.363 137.35 907.044 139.366V139.419ZM892.882 128.062C892.776 122.861 890.972 118.722 887.312 115.591C883.705 112.46 879.196 110.921 873.839 110.921C868.959 110.921 864.822 112.46 861.374 115.538C857.926 118.616 855.857 122.808 855.221 128.062H892.829H892.882Z" fill="white"/>
</svg>
